<?xml version="1.0" encoding="utf-8"?>
<!-- Generator: Adobe Illustrator 19.2.1, SVG Export Plug-In . SVG Version: 6.00 Build 0)  -->
<svg version="1.1" id="layer" xmlns="http://www.w3.org/2000/svg" xmlns:xlink="http://www.w3.org/1999/xlink" x="0px" y="0px"
	 viewBox="0 0 652 652" style="enable-background:new 0 0 652 652;" xml:space="preserve">
<style type="text/css">
	.st0{fill:#FF8000;}
</style>
<path class="st0" d="M623.4,308.3c0.3,0,0.6-0.2,0.6-0.6c0-0.4-0.2-0.6-0.6-0.6h-0.6v1.2H623.4z M622.2,306.7h1.3
	c0.7,0,1.1,0.4,1.1,1.1c0,0.5-0.4,0.8-0.6,0.9v0c0,0,0,0,0.1,0.2l0.7,1.3h-0.7l-0.6-1.3h-0.6v1.3h-0.7V306.7z M623.3,311.2
	c1.5,0,2.6-1.2,2.6-2.7c0-1.5-1.1-2.7-2.6-2.7c-1.5,0-2.6,1.2-2.6,2.7C620.7,310,621.9,311.2,623.3,311.2z M623.3,305.1
	c1.8,0,3.3,1.5,3.3,3.4c0,1.9-1.5,3.4-3.3,3.4c-1.8,0-3.3-1.5-3.3-3.4C620.1,306.6,621.5,305.1,623.3,305.1z M606.9,363.6
	L606.9,363.6c0.1,2.4-0.7,4.8-2.1,6.7l0.1,0.1l0.1-0.1c-1.3,1.6-3.3,2.4-5.3,2.2h-8.2v-17.5h8.2c2-0.2,4,0.7,5.3,2.2l-0.1-0.1
	C606.3,359,607,361.3,606.9,363.6L606.9,363.6z M591.4,322.7h7.2c1.8-0.1,3.6,0.6,4.8,1.9l0.1,0.1c1.3,1.7,1.9,3.8,1.7,5.9
	c0.2,2.2-0.5,4.5-1.8,6.3v-0.1c-1.2,1.4-2.9,2.1-4.8,2h-7.3V322.7z M623.7,363.5v0.1c0-6.8-3.1-13.2-8.4-17.5l0.1,0.1l0.1-0.1
	c4.4-4.2,6.8-10,6.8-16v0.3c0.2-6.3-2-12.5-6.1-17.3l0.1,0.2c-4.5-5-10.9-7.8-17.7-7.7h-23c-0.8,0-1.4,0.6-1.4,1.4c0,0,0,0,0,0v80.9
	c0,0.8,0.6,1.4,1.4,1.4h23.9c7.3,0.1,14.2-3,18.8-8.6l-0.1,0.1C622.2,375.8,624.1,369.7,623.7,363.5 M561.5,364.6V307
	c-0.1-0.7-0.6-1.3-1.3-1.3h-14.8c-0.7-0.1-1.4,0.5-1.4,1.2c0,0,0,0,0,0v57.6c0.1,2.3-0.5,4.6-1.9,6.5c-2.4,2.6-6.5,2.9-9.2,0.5
	c-0.2-0.1-0.3-0.3-0.5-0.5c-1.4-1.9-2-4.1-1.9-6.4V307c-0.1-0.7-0.7-1.3-1.4-1.3h-14.7c-0.7,0-1.4,0.5-1.4,1.3v57.8
	c-0.5,6.8,1.7,13.6,6.2,18.9l0.2,0.2c10.3,9.3,26,9.2,36.2-0.3l-0.2,0.2C559.8,378.3,562,371.5,561.5,364.6 M499,305.7
	C499,305.7,499,305.7,499,305.7L499,305.7h-14.4c-0.8,0-1.4,0.6-1.4,1.4c0,0,0,0,0,0v31.3h-14.6v-31.3c0-0.8-0.6-1.4-1.4-1.4
	c0,0,0,0,0,0h-14.3c-0.8,0-1.4,0.6-1.4,1.4c0,0,0,0,0,0v80.7c0,0.8,0.6,1.4,1.4,1.4h14.3c0.8,0,1.4-0.6,1.4-1.4c0,0,0,0,0,0v-32.5
	h14.6v32.5c0,0.8,0.6,1.4,1.4,1.4H499c0.8,0,1.4-0.6,1.4-1.4c0,0,0,0,0,0v-80.7C500.4,306.4,499.8,305.7,499,305.7z M423.8,363.6
	L423.8,363.6c0.1,2.4-0.7,4.8-2.1,6.7l0.1,0.1l0.1-0.1c-1.3,1.6-3.3,2.4-5.3,2.2h-8.2v-17.5h8.2c2-0.2,4,0.7,5.3,2.2l-0.1-0.1
	C423.2,359,423.9,361.3,423.8,363.6L423.8,363.6z M408.3,322.7L408.3,322.7l7.2,0c1.8-0.1,3.6,0.6,4.8,1.9l0.1,0.1
	c1.3,1.7,1.9,3.8,1.7,5.9c0.2,2.2-0.5,4.5-1.8,6.3v-0.1c-1.2,1.4-2.9,2.1-4.8,2h-7.3V322.7z M440.7,363.5v0.2
	c0-6.8-3.1-13.2-8.4-17.5h0l0.1-0.1c4.4-4.2,6.8-10,6.8-16c0.1-6.1-2.1-12-6.1-16.7v0.1c-4.5-5-10.9-7.8-17.7-7.7h-22.9
	c-0.8,0-1.4,0.6-1.4,1.4c0,0,0,0,0,0v80.7c0,0.8,0.6,1.4,1.4,1.4h24c7.3,0.1,14.2-3,18.8-8.6l-0.1,0.1
	C439.2,375.8,441.1,369.7,440.7,363.5 M378.5,364.6V307c-0.1-0.7-0.7-1.3-1.4-1.3h-14.7c-0.7,0-1.4,0.5-1.4,1.3v57.6
	c0.1,2.4-0.6,4.7-2,6.6c-2.4,2.6-6.5,2.8-9.1,0.4c-0.2-0.1-0.3-0.3-0.5-0.5c-1.4-1.9-2-4.1-1.9-6.4V307c0-0.7-0.6-1.3-1.3-1.3
	c0,0-0.1,0-0.1,0h-14.7c-0.7-0.1-1.4,0.5-1.4,1.2c0,0,0,0,0,0v57.6c-0.5,6.9,1.7,13.8,6.2,19c4.7,4.7,11.2,7.3,18,7.1h0.2
	c6.7,0.2,13.2-2.3,18-7.1C376.7,378.3,379,371.5,378.5,364.6 M300.4,338.4L300.4,338.4L300.4,338.4c-1.4,1.6-3.5,2.4-5.7,2.3h-7
	v-18.1h7c2.2-0.1,4.2,0.8,5.7,2.3V325c1.5,1.8,2.3,4.1,2.2,6.4v0.1C302.8,334,302,336.5,300.4,338.4z M309.3,353.3L309.3,353.3
	L309.3,353.3c1.5-1.1,2.9-2.3,4.1-3.6l-0.1,0.1c4.4-5.1,6.7-11.6,6.5-18.3v-0.2c0.1-6.6-2.3-13-6.7-17.9l0.3,0.3
	c-4.4-5-10.7-7.9-17.3-8.1H272c-0.8,0-1.4,0.6-1.4,1.4c0,0,0,0,0,0v80.8c0,0.8,0.6,1.4,1.4,1.4h14.3c0.8,0,1.4-0.6,1.4-1.4
	c0,0,0,0,0,0V358h5.3l9.1,30.5c0.2,0.6,0.7,1,1.4,1h15.2c0.5,0,0.9-0.2,1.2-0.6c0.2-0.4,0.2-0.9,0-1.3L309.3,353.3 M253.3,311.4
	c-4.8-4.8-11.3-7.3-18-7.1l0,0h-0.1c-6.7-0.2-13.3,2.3-18,7.1l0.2-0.2c-4.6,5.3-6.9,12.1-6.5,19v34.4c-0.5,6.9,1.7,13.8,6.2,19
	c4.7,4.7,11.2,7.3,18,7.1h0.3c6.7,0.2,13.3-2.3,18-7.1c4.5-5.3,6.7-12.1,6.2-19.1v-18.8c0-0.8-0.7-1.4-1.5-1.4h-21.2
	c-0.8,0-1.5,0.6-1.5,1.4v14.1c0.1,0.8,0.7,1.5,1.5,1.5h5.8v3.2c0.1,2.4-0.6,4.8-2,6.8l0.1-0.1c-1.3,1.6-3.2,2.5-5.2,2.3h-0.1
	c-2,0.2-4-0.6-5.2-2.2c-1.5-1.9-2.2-4.3-2.1-6.7v-34.2c-0.1-2.5,0.7-4.9,2.2-6.9c1.3-1.6,3.2-2.5,5.2-2.3h0.1c2-0.2,4,0.6,5.2,2.2
	l0.1,0.1c1.3,2,2,4.4,1.7,6.8v3.2c0.1,0.7,0.7,1.3,1.4,1.3h14.3c0.7,0,1.4-0.5,1.4-1.3v-3.2C260.2,323.5,257.8,316.7,253.3,311.4
	L253.3,311.4 M169.2,292.2c-0.3-0.4-0.6-0.9-0.6-1.4v0c-1.5-17.2-4-28.7-4-28.7c-0.4-2-2.1-3.4-4-3.7l-13.8-1.7c-0.1,0-0.2,0-0.4,0
	c-1.6,0-2.9,1.3-2.9,2.9v4.8c0,0.1-0.1,0.2-0.2,0.2c0,0-0.1,0-0.1,0l0,0c-8.2-7.4-17.5-14.6-27.8-21c-2-1.3-4.3-2.1-6.8-2.1v0h0v0
	c-2.5,0-4.9,0.8-6.8,2.1c-47.5,29.3-73.7,77.1-74.7,79.7c-0.3,0.6-0.4,1.3-0.4,2c0,2.2,1.5,4.1,3.6,4.6l13.7,2.6
	c1.8,0.5,3.2,2.1,3.4,4c0.1,2.4,2.7,56.4,6,70.4c0.5,2,2.4,3.5,4.6,3.5h0.1c8-0.2,15.3-0.3,23.2-0.4c0,0,0,0,0,0h0l0.1,0
	c0.2,0,0.4,0,0.6,0c0.8,0,1.5-0.7,1.5-1.5c0,0,0,0,0,0c-0.3-4.7-1-15.5-1.6-26.8c0-0.3,0-0.6-0.1-0.9h0c-0.1-1-0.6-1.8-1.4-2.3
	c-4.1-2.5-6.9-6.9-7.2-11.9c-0.7-18.9-1.1-40.8,0-57.9c0.1-1.4,1.3-2.6,2.7-2.6c1.5,0,2.8,1.2,2.8,2.7c0,0.1,0,0.1,0,0.2
	c-0.7,11.4-0.7,24.9-0.5,38.2c0,1.8,1.5,3.2,3.3,3.2c1.8,0,3.2-1.5,3.2-3.3c-0.2-13.4-0.2-27,0.5-38.4c0.1-1.4,1.3-2.6,2.7-2.6
	c1.5,0,2.8,1.2,2.8,2.7c0,0.1,0,0.1,0,0.2c-0.7,11.4-0.7,24.8-0.5,38c0,0,0,0,0,0c0,1.8,1.5,3.2,3.3,3.2c1.8,0,3.2-1.5,3.2-3.3
	c-0.2-13.3-0.2-26.9,0.5-38.3c0.1-1.4,1.3-2.6,2.7-2.6c1.5,0,2.8,1.2,2.8,2.7c0,0.1,0,0.1,0,0.2c-1,16.6-0.7,37.7,0,56.2
	c0,0,0,0.2,0,0.2c0,0.1,0,0.2,0,0.3c0,0,0,0,0,0c0,0.1,0,0.1,0,0.2c0,5.1-2.5,9.5-6.4,12.2c-0.7,0.5-1.2,1.2-1.2,2.1
	c0,0-0.3,2.8,0.9,16.6c0.6,6,1,10.2,1.2,12c0.1,0.7,0.7,1.3,1.4,1.3c0.4,0,0.9,0,1.3,0h0c2.6,0,5.4,0,8.2,0h0.5h0.5
	c3.6,0,7,0,10.3,0l7.8,0.1c0,0,0,0,0,0c0.7,0,1.3-0.6,1.5-1.3c1.8-16.5,2.2-25.7,2.2-25.7c0-0.8-0.6-1.5-1.5-1.6L120,380
	c-1.5-0.3-2.4-1.2-2.7-2.3c-0.2-0.7-0.1-1.5-0.1-1.5c3.8-54.9,21.9-73.5,21.9-73.5c0.5-0.5,0.9-0.8,0.9-0.8c0.5-0.3,1.1-0.6,1.7-0.6
	c1.2,0,2.3,0.8,2.7,1.8c0,0,0.1,0.4,0.2,1.3c1.6,17.3,0.8,46.7-0.2,69.6c-0.8,19.5-1.8,34.7-1.8,34.7c0,0,0,0,0,0
	c0,0.6,0.5,1.1,1.1,1.1v0c5.1,0.1,10.2,0.2,15.6,0.3h0.1c2.2,0,4-1.5,4.6-3.5c3.3-14,5.8-68,6-70.4c0.2-1.9,1.6-3.5,3.4-4l13.7-2.6
	c2-0.5,3.6-2.4,3.6-4.6c0-0.7-0.2-1.4-0.4-2C189.6,321.9,182.5,308.7,169.2,292.2"/>
</svg>
